# 3ds Max Wavefront OBJ Exporter v0.97b - (c)2007 guruware
# File Created: 29.11.2016 12:57:54

mtllib Barn_ex.mtl

#
# object Barn
#

v  -174.7708 87.2479 -110.9740
v  -174.7707 87.2479 127.0974
v  -72.8599 87.2479 127.0974
v  -72.8599 87.2479 -110.9740
v  -28.7586 18.3449 127.0974
v  -28.7586 -50.5580 127.0974
v  -28.7586 -50.5580 -110.9740
v  -28.7586 18.3449 -110.9740
v  -72.8599 18.3449 -110.9740
v  -72.8599 -50.5580 -110.9740
v  -174.7707 -50.5580 -110.9740
v  -174.7708 18.3449 -110.9740
v  -221.2439 18.3449 -110.9740
v  -221.2439 -50.5580 -110.9740
v  -221.2439 -50.5580 127.0974
v  -221.2439 18.3449 127.0974
v  -28.7586 87.2479 127.0974
v  -28.7586 87.2479 -110.9740
v  -221.2439 87.2479 -110.9740
v  -221.2439 87.2479 127.0974
v  -72.8599 18.3449 127.0974
v  -72.8599 -50.5580 127.0974
v  -174.7708 18.3449 127.0974
v  -174.7708 -50.5580 127.0974
v  -174.7708 -50.5580 77.1052
v  -72.8599 -50.5580 77.1052
v  -72.8599 18.3449 77.1052
v  -174.7708 18.3449 77.1052
v  -123.5007 -50.5580 127.0974
v  -123.5007 18.3449 127.0974
v  -175.2605 18.3449 127.0974
v  -175.2605 -50.5580 127.0974
v  -123.4513 -50.5580 127.0974
v  -71.6915 -50.5580 127.0974
v  -71.6915 18.3449 127.0974
v  -123.4513 18.3449 127.0974
v  -125.0012 84.8618 133.5428
v  -229.4420 84.8618 133.5428
v  -229.4420 84.8618 -117.4194
v  -125.0012 84.8618 -117.4194
v  -182.3913 157.5972 -117.4194
v  -182.3913 157.5972 133.5428
v  -125.0012 186.4022 133.5428
v  -125.0012 186.4022 -117.4194
v  -229.4420 95.0462 133.5428
v  -125.0012 95.0462 133.5428
v  -229.4420 95.0462 -117.4194
v  -125.0012 95.0462 -117.4194
v  -20.5604 84.8618 -117.4194
v  -20.5604 84.8618 133.5428
v  -67.6111 157.5972 -117.4194
v  -67.6111 157.5972 133.5428
v  -20.5604 95.0462 133.5428
v  -20.5604 95.0462 -117.4194
# 54 vertices

vn 0.0000 1.0000 -0.0000
vn 1.0000 0.0000 -0.0000
vn 0.0000 0.0000 -1.0000
vn -1.0000 0.0000 -0.0000
vn 0.0000 0.0000 1.0000
vn 0.0000 -1.0000 -0.0000
vn 1.0000 -0.0000 -0.0000
vn -0.5358 0.8444 -0.0000
vn -0.0000 1.0000 -0.0000
vn -0.0000 0.0000 1.0000
vn -0.8594 0.5113 -0.0000
vn -0.0000 0.0000 -1.0000
vn 0.5358 0.8444 -0.0000
vn 0.8594 0.5113 -0.0000
# 14 vertex normals

vt 0.6596 0.7491 0.0000
vt 0.9409 0.7491 0.0000
vt 0.9409 0.8723 0.0000
vt 0.6596 0.8723 0.0000
vt 0.1357 0.5361 0.0000
vt 0.0328 0.5365 0.0000
vt 0.0318 0.2487 0.0000
vt 0.1347 0.2483 0.0000
vt 0.1346 0.1976 0.0000
vt 0.0316 0.1980 0.0000
vt 0.0312 0.0808 0.0000
vt 0.1342 0.0805 0.0000
vt 0.6596 0.5875 0.0000
vt 0.6596 0.4822 0.0000
vt 0.9409 0.4822 0.0000
vt 0.9409 0.5875 0.0000
vt 0.9409 0.9256 0.0000
vt 0.6596 0.9256 0.0000
vt 0.6596 0.6929 0.0000
vt 0.9409 0.6929 0.0000
vt 0.1359 0.5868 0.0000
vt 0.0329 0.5872 0.0000
vt 0.1363 0.7040 0.0000
vt 0.2393 0.7036 0.0000
vt 0.2395 0.7570 0.0000
vt 0.1365 0.7574 0.0000
vt 0.0310 0.0274 0.0000
vt 0.1340 0.0270 0.0000
vt 0.2375 0.1973 0.0000
vt 0.2377 0.2480 0.0000
vt 0.2389 0.5864 0.0000
vt 0.2387 0.5357 0.0000
vt 0.2371 0.0801 0.0000
vt 0.0335 0.7578 0.0000
vt 0.0333 0.7043 0.0000
vt 0.2370 0.0266 0.0000
vt 0.5720 0.9177 0.0000
vt 0.4434 0.9177 0.0000
vt 0.4434 0.8053 0.0000
vt 0.5720 0.8053 0.0000
vt 0.5720 0.9891 0.0000
vt 0.4434 0.9891 0.0000
vt 0.3771 0.9212 0.0000
vt 0.3771 0.8088 0.0000
vt 0.4434 0.7409 0.0000
vt 0.5720 0.7409 0.0000
vt 0.6383 0.8088 0.0000
vt 0.6383 0.9212 0.0000
vt 0.0058 0.7656 0.0000
vt 0.3566 0.7622 0.0000
vt 0.3589 0.9932 0.0000
vt 0.0081 0.9966 0.0000
vt 0.0046 0.7666 0.0000
vt 0.0069 0.9975 0.0000
vt 0.3577 0.9942 0.0000
vt 0.3555 0.7632 0.0000
vt 0.9493 0.3566 0.0000
vt 0.9504 0.4686 0.0000
vt 0.6510 0.4714 0.0000
vt 0.6500 0.3594 0.0000
vt 0.4754 0.5421 0.0000
vt 0.4728 0.2336 0.0000
vt 0.5377 0.2298 0.0000
vt 0.5401 0.5383 0.0000
vt 0.3294 0.2421 0.0000
vt 0.3655 0.1335 0.0000
vt 0.5524 0.1925 0.0000
vt 0.3315 0.5505 0.0000
vt 0.5564 0.5740 0.0000
vt 0.3692 0.6556 0.0000
vt 0.6481 0.2475 0.0000
vt 0.9492 0.2446 0.0000
vt 0.6458 0.0842 0.0000
vt 0.6452 0.0196 0.0000
vt 0.9480 0.0167 0.0000
vt 0.9486 0.0802 0.0000
vt 0.5127 0.1135 0.0000
vt 0.4029 0.0256 0.0000
vt 0.9499 0.2229 0.0000
vt 0.6471 0.2246 0.0000
vt 0.5185 0.6574 0.0000
vt 0.4077 0.7605 0.0000
vt 0.3092 0.5519 0.0000
vt 0.3068 0.2434 0.0000
vt 0.3483 0.6647 0.0000
vt 0.3098 0.5597 0.0000
vt 0.3869 0.7696 0.0000
vt 0.3446 0.1269 0.0000
vt 0.3812 0.0183 0.0000
vt 0.3080 0.2355 0.0000
# 90 texture coords

g Barn
usemtl Material__1
s 4
f 1/1/1 2/2/1 3/3/1 4/4/1 
s 16
f 5/5/2 6/6/2 7/7/2 8/8/2 
s 32
f 9/9/3 10/10/3 11/11/3 12/12/3 
s 64
f 13/13/4 14/14/4 15/15/4 16/16/4 
s 4
f 4/4/1 3/3/1 17/17/1 18/18/1 
f 2/2/1 1/1/1 19/19/1 20/20/1 
s 8
f 21/21/5 22/22/5 6/6/5 5/5/5 
f 23/23/5 2/24/5 20/25/5 16/26/5 
s 32
f 12/12/3 11/11/3 14/27/3 13/28/3 
f 9/9/3 4/29/3 18/30/3 8/8/3 
s 8
f 23/23/5 21/21/5 3/31/5 2/24/5 
s 16
f 5/5/2 8/8/2 18/30/2 17/32/2 
s 32
f 9/9/3 12/12/3 1/33/3 4/29/3 
s 64
f 13/13/4 16/16/4 20/20/4 19/19/4 
s 8
f 21/21/5 5/5/5 17/32/5 3/31/5 
f 23/23/5 16/26/5 15/34/5 24/35/5 
s 32
f 12/12/3 13/28/3 19/36/3 1/33/3 
f 9/9/3 8/8/3 7/7/3 10/10/3 
s 1
f 25/37/5 26/38/5 27/39/5 28/40/5 
s off
f 26/38/1 25/37/1 24/41/1 22/42/1 
f 27/39/4 26/38/4 22/43/4 21/44/4 
f 28/40/6 27/39/6 21/45/6 23/46/6 
f 25/37/7 28/40/7 23/47/7 24/48/7 
s 8
f 29/49/5 30/50/5 31/51/5 32/52/5 
f 33/53/5 34/54/5 35/55/5 36/56/5 
s 2
f 37/57/6 38/58/6 39/59/6 40/60/6 
s 4
f 41/61/8 42/62/8 43/63/9 44/64/9 
s 8
f 42/62/10 45/65/5 46/66/10 43/67/10 
s 64
f 42/62/11 41/61/11 47/68/11 45/65/11 
s 32
f 41/61/12 44/69/12 48/70/12 47/68/3 
s 2
f 37/57/6 40/60/6 49/71/6 50/72/6 
s 4
f 51/73/13 44/74/9 43/75/9 52/76/13 
s 8
f 52/77/5 43/67/10 46/66/10 53/78/5 
s 64
f 52/76/14 53/79/14 54/80/14 51/73/14 
s 32
f 51/81/3 54/82/3 48/70/12 44/69/12 
s off
f 39/83/4 38/84/4 45/65/4 47/68/4 
f 40/85/3 39/86/3 47/68/3 48/70/3 
f 49/87/3 40/85/3 48/70/3 54/82/3 
f 50/72/2 49/71/2 54/80/2 53/79/2 
f 37/88/5 50/89/5 53/78/5 46/66/5 
f 38/90/5 37/88/5 46/66/5 45/65/5 
# 41 polygons

