# 3ds Max Wavefront OBJ Exporter v0.97b - (c)2007 guruware
# File Created: 30.11.2016 11:44:14

mtllib Chair_ex.mtl

#
# object Chair
#

v  -12.0715 25.1348 -94.7524
v  1.3842 25.1348 -94.7524
v  1.3842 25.1348 -66.1110
v  -12.0715 25.1348 -68.1273
v  1.4686 28.0148 -65.2342
v  1.4686 28.0148 -94.7524
v  -12.4765 28.0148 -94.7524
v  -12.4765 28.0148 -67.2506
v  14.8398 25.1348 -68.1273
v  14.8398 25.1348 -94.7524
v  15.4136 28.0148 -94.7524
v  15.4136 28.0148 -67.2506
v  10.4718 0.0000 -70.3872
v  14.1769 0.0000 -70.3287
v  14.1134 0.0000 -66.2969
v  10.4082 0.0000 -66.3553
v  10.5310 25.4722 -74.1441
v  14.2362 25.4722 -74.0857
v  14.1726 25.4722 -70.0539
v  10.4674 25.4722 -70.1123
v  -11.2198 0.0000 -70.7293
v  -7.5146 0.0000 -70.6709
v  -7.5782 0.0000 -66.6391
v  -11.2834 0.0000 -66.6975
v  -11.1606 25.4722 -74.4863
v  -7.4554 25.4722 -74.4279
v  -7.5190 25.4722 -70.3960
v  -11.2242 25.4722 -70.4545
v  10.4707 0.0000 -91.7837
v  10.4707 0.0000 -95.8160
v  14.1764 0.0000 -95.8160
v  14.1764 0.0000 -91.7837
v  14.1764 25.4722 -88.0263
v  10.4707 25.4722 -88.0263
v  14.1764 25.4722 -92.0586
v  10.4707 25.4722 -92.0586
v  -11.2236 0.0000 -91.7837
v  -11.2236 0.0000 -95.8160
v  -7.5179 0.0000 -95.8160
v  -7.5179 0.0000 -91.7837
v  -7.5179 25.4722 -88.0263
v  -11.2236 25.4722 -88.0263
v  -7.5179 25.4722 -92.0586
v  -11.2236 25.4722 -92.0586
v  -10.3898 42.3841 -96.2289
v  1.4686 42.3841 -96.2289
v  1.4686 61.2331 -94.9201
v  -12.4765 56.1330 -94.9201
v  1.4686 61.1838 -97.7996
v  1.4686 42.3348 -99.1084
v  -10.3898 42.3348 -99.1084
v  -12.4765 56.0837 -97.7996
v  12.3844 42.3841 -96.2289
v  12.3844 42.3348 -99.1084
v  15.4136 56.0837 -97.7996
v  15.4136 56.1330 -94.9201
v  1.4686 25.0811 -94.4495
v  1.4686 25.0318 -97.3291
v  15.4136 25.0318 -97.3291
v  15.4136 25.0811 -94.4495
v  -12.4765 25.0318 -97.3291
v  -12.4765 25.0811 -94.4495
# 62 vertices

vn 0.0000 -1.0000 -0.0000
vn -0.0000 1.0000 0.0000
vn 0.0000 1.0000 0.0000
vn 0.0000 1.0000 -0.0000
vn -0.0996 -0.1988 0.9750
vn -0.0017 -0.1897 0.9818
vn 0.0017 -0.1920 0.9814
vn -0.0991 -0.2009 0.9746
vn 0.9842 -0.1770 0.0000
vn 0.9842 -0.1770 -0.0000
vn 0.0000 -0.0000 -1.0000
vn -0.9920 -0.1259 0.0000
vn -0.9920 -0.1259 -0.0000
vn 0.0995 -0.2039 0.9739
vn 0.0990 -0.2059 0.9735
vn 0.0110 -0.0932 -0.9956
vn 0.9997 -0.0000 0.0224
vn -0.0110 0.0932 0.9956
vn -0.9997 0.0000 -0.0224
vn -0.9997 -0.0000 -0.0224
vn 0.0000 -0.0932 0.9956
vn 1.0000 0.0000 -0.0000
vn 0.0000 0.0932 -0.9956
vn -1.0000 0.0000 -0.0000
vn 0.0045 0.0076 1.0000
vn 0.0000 0.0106 0.9999
vn -0.0002 -0.0512 0.9987
vn 0.0232 -0.0571 0.9981
vn 0.0024 0.0477 -0.9989
vn 0.0021 -0.0084 -1.0000
vn -0.0045 -0.0076 -1.0000
vn -0.0232 0.0571 -0.9981
vn -0.0000 0.9996 -0.0269
vn -0.3755 0.9265 -0.0250
vn 0.9997 -0.0227 0.0006
vn 0.9999 -0.0173 0.0005
vn 0.9807 -0.1953 0.0053
vn 0.0000 -0.9996 0.0269
vn -0.9999 -0.0159 0.0004
vn -0.9999 -0.0121 0.0003
vn -0.9941 0.1080 -0.0029
vn 0.0000 0.0651 0.9979
vn 0.0000 -0.0651 -0.9979
vn 0.0000 -0.0017 -1.0000
vn 0.9878 0.1558 -0.0042
vn -0.9907 -0.1359 0.0037
vn -0.0044 0.0077 1.0000
vn -0.0226 -0.0558 0.9982
vn 0.0123 0.0491 -0.9987
vn 0.3755 0.9265 -0.0250
vn -0.0000 -0.0651 -0.9979
# 51 vertex normals

vt 0.5343 0.3412 0.0000
vt 0.6929 0.3399 0.0000
vt 0.6949 0.5711 0.0000
vt 0.5361 0.5561 0.0000
vt 0.6914 0.0650 0.0000
vt 0.6936 0.3032 0.0000
vt 0.5292 0.3046 0.0000
vt 0.5274 0.0825 0.0000
vt 0.5281 0.0455 0.0000
vt 0.6862 0.0286 0.0000
vt 0.8937 0.0866 0.0000
vt 0.8955 0.3016 0.0000
vt 0.8579 0.3019 0.0000
vt 0.8560 0.0799 0.0000
vt 0.8515 0.3386 0.0000
vt 0.4916 0.3049 0.0000
vt 0.4897 0.0899 0.0000
vt 0.8533 0.5535 0.0000
vt 0.8442 0.0116 0.0000
vt 0.8551 0.0474 0.0000
vt 0.6322 0.9819 0.0000
vt 0.6360 0.9396 0.0000
vt 0.6692 0.9428 0.0000
vt 0.6654 0.9851 0.0000
vt 0.5923 0.9396 0.0000
vt 0.5930 0.6153 0.0000
vt 0.6367 0.6153 0.0000
vt 0.6699 0.6183 0.0000
vt 0.7136 0.6186 0.0000
vt 0.7129 0.9429 0.0000
vt 0.5591 0.9427 0.0000
vt 0.5598 0.6181 0.0000
vt 0.6295 0.9796 0.0000
vt 0.6337 0.9373 0.0000
vt 0.6669 0.9408 0.0000
vt 0.6627 0.9831 0.0000
vt 0.5900 0.9368 0.0000
vt 0.5956 0.6118 0.0000
vt 0.6393 0.6125 0.0000
vt 0.6725 0.6161 0.0000
vt 0.7162 0.6170 0.0000
vt 0.7107 0.9415 0.0000
vt 0.5567 0.9394 0.0000
vt 0.5623 0.6141 0.0000
vt 0.6313 0.9827 0.0000
vt 0.6319 0.9501 0.0000
vt 0.6756 0.9509 0.0000
vt 0.6750 0.9835 0.0000
vt 0.5987 0.9465 0.0000
vt 0.5550 0.9456 0.0000
vt 0.5606 0.6212 0.0000
vt 0.6043 0.6217 0.0000
vt 0.7090 0.9486 0.0000
vt 0.6813 0.6259 0.0000
vt 0.7146 0.6232 0.0000
vt 0.6375 0.6253 0.0000
vt 0.6756 0.9450 0.0000
vt 0.6756 0.9775 0.0000
vt 0.6319 0.9775 0.0000
vt 0.6319 0.9449 0.0000
vt 0.6319 0.6204 0.0000
vt 0.6756 0.6204 0.0000
vt 0.5987 0.9479 0.0000
vt 0.5987 0.6235 0.0000
vt 0.5550 0.9477 0.0000
vt 0.5550 0.6237 0.0000
vt 0.7088 0.9481 0.0000
vt 0.7088 0.6233 0.0000
vt 0.1152 0.7520 0.0000
vt 0.2550 0.7518 0.0000
vt 0.2550 0.9916 0.0000
vt 0.0907 0.9265 0.0000
vt 0.2554 0.0497 0.0000
vt 0.2550 0.2884 0.0000
vt 0.1152 0.2885 0.0000
vt 0.0917 0.1131 0.0000
vt 0.2465 0.0265 0.0000
vt 0.0834 0.0897 0.0000
vt 0.3837 0.7522 0.0000
vt 0.4069 0.7460 0.0000
vt 0.4423 0.9194 0.0000
vt 0.4193 0.9263 0.0000
vt 0.2550 0.5318 0.0000
vt 0.2550 0.5085 0.0000
vt 0.4193 0.5082 0.0000
vt 0.4193 0.5318 0.0000
vt 0.0913 0.2870 0.0000
vt 0.0906 0.5084 0.0000
vt 0.0668 0.5067 0.0000
vt 0.0906 0.5318 0.0000
vt 0.3837 0.2887 0.0000
vt 0.4431 0.5052 0.0000
vt 0.4076 0.2862 0.0000
vt 0.0673 0.9212 0.0000
vt 0.0918 0.7470 0.0000
vt 0.4178 0.1130 0.0000
vt 0.4256 0.0900 0.0000
vt 0.2673 0.0275 0.0000
# 98 texture coords

g Chair
usemtl Material__2
s 2
f 1/1/1 2/2/1 3/3/1 4/4/1 
s 4
f 5/5/2 6/6/2 7/7/3 8/8/4 
s 8
f 4/9/5 3/10/6 5/5/7 8/8/8 
s 16
f 9/11/9 10/12/9 11/13/9 12/14/10 
s 32
f 10/15/11 2/2/11 6/6/11 11/13/11 
s 64
f 1/16/12 4/17/12 8/8/12 7/7/13 
s 2
f 10/15/1 9/18/1 3/3/1 2/2/1 
s 4
f 12/14/2 11/13/4 6/6/2 5/5/2 
s 8
f 9/19/14 12/20/15 5/5/7 3/10/6 
s 32
f 1/1/11 7/7/11 6/6/11 2/2/11 
s 2
f 13/21/1 14/22/1 15/23/1 16/24/1 
s 8
f 13/25/16 17/26/16 18/27/16 14/22/16 
s 16
f 14/22/17 18/27/17 19/28/17 15/23/17 
s 32
f 15/23/18 19/28/18 20/29/18 16/30/18 
s 64
f 16/31/19 20/32/20 17/26/20 13/25/19 
s 2
f 21/33/1 22/34/1 23/35/1 24/36/1 
s 8
f 21/37/16 25/38/16 26/39/16 22/34/16 
s 16
f 22/34/17 26/39/17 27/40/17 23/35/17 
s 32
f 23/35/18 27/40/18 28/41/18 24/42/18 
s 64
f 24/43/19 28/44/20 25/38/20 21/37/19 
s 2
f 29/45/1 30/46/1 31/47/1 32/48/1 
s 8
f 29/49/21 32/50/21 33/51/21 34/52/21 
s 16
f 32/53/22 31/47/22 35/54/22 33/55/22 
s 32
f 31/47/23 30/46/23 36/56/23 35/54/23 
s 64
f 30/46/24 29/49/24 34/52/24 36/56/24 
s 2
f 37/57/1 38/58/1 39/59/1 40/60/1 
s 8
f 37/57/21 40/60/21 41/61/21 42/62/21 
s 16
f 40/60/22 39/63/22 43/64/22 41/61/22 
s 32
f 39/63/23 38/65/23 44/66/23 43/64/23 
s 64
f 38/67/24 37/57/24 42/62/24 44/68/24 
s 2
f 45/69/25 46/70/26 47/71/27 48/72/28 
s 4
f 49/73/29 50/74/30 51/75/31 52/76/32 
s 8
f 47/77/33 49/73/33 52/76/34 48/78/34 
s 16
f 53/79/35 54/80/36 55/81/37 56/82/37 
s 32
f 57/83/38 58/84/38 59/85/38 60/86/38 
s 64
f 45/87/39 51/75/40 61/88/41 62/89/41 
s 2
f 62/90/42 57/83/42 46/70/26 45/69/25 
s 4
f 59/85/43 58/84/43 50/74/30 54/91/44 
s 16
f 60/92/45 59/85/45 54/91/36 53/93/35 
s 64
f 48/72/46 52/94/46 51/95/40 45/69/39 
s 2
f 53/79/47 56/82/48 47/71/27 46/70/26 
s 4
f 55/96/49 54/91/44 50/74/30 49/73/29 
s 8
f 56/97/50 55/96/50 49/73/33 47/98/33 
s 32
f 62/90/38 61/88/38 58/84/38 57/83/38 
s 2
f 60/86/42 53/79/47 46/70/26 57/83/42 
s 4
f 61/88/51 51/75/31 50/74/30 58/84/43 
# 46 polygons

